<svg width="21" height="16" viewBox="0 0 21 16" fill="none" xmlns="http://www.w3.org/2000/svg">
<path d="M19.862 14.1923H0.458C0.3491 14.1923 0.26 14.2827 0.26 14.3931V15.7991C0.26 15.9096 0.3491 16 0.458 16H19.862C19.9709 16 20.06 15.9096 20.06 15.7991V14.3931C20.06 14.2827 19.9709 14.1923 19.862 14.1923ZM1.58908 11.0489L2.57165 12.0406C2.64838 12.1184 2.7746 12.1184 2.85133 12.0406L8.66015 6.16813L11.0758 8.61102C11.2246 8.7606 11.4256 8.84452 11.6351 8.84452C11.8446 8.84452 12.0456 8.7606 12.1945 8.61102L18.7334 2.00291C18.8101 1.92508 18.8101 1.79703 18.7334 1.7192L17.7508 0.724974C17.7136 0.687595 17.6634 0.666626 17.611 0.666626C17.5586 0.666626 17.5084 0.687595 17.4712 0.724974L11.6376 6.62508L9.2195 4.18218C9.07068 4.0326 8.86965 3.94869 8.66015 3.94869C8.45065 3.94869 8.24962 4.0326 8.1008 4.18218L1.58908 10.7652C1.57056 10.7837 1.55586 10.8058 1.54583 10.8302C1.5358 10.8545 1.53063 10.8807 1.53063 10.907C1.53063 10.9334 1.5358 10.9596 1.54583 10.9839C1.55586 11.0083 1.57056 11.0304 1.58908 11.0489Z" fill="#F8F8F8"/>
<line x1="4.06" y1="10" x2="4.06" y2="14.6667" stroke="white"/>
<line x1="6.7" y1="7.33325" x2="6.7" y2="14.6666" stroke="white"/>
<line x1="9.34" y1="6" x2="9.34" y2="14.6667" stroke="white"/>
<line x1="11.98" y1="7.33325" x2="11.98" y2="15.9999" stroke="white"/>
<path d="M14 5L14 15.6667" stroke="white"/>
<path d="M16 4L16 14.6667" stroke="white"/>
<line x1="15" y1="0.5" x2="18.96" y2="0.499999" stroke="white"/>
<path d="M18.6399 4.03577L18.6686 0.576189" stroke="white"/>
</svg>
