<svg id="Layer_1" data-name="Layer 1" xmlns="http://www.w3.org/2000/svg" viewBox="0 0 32 32"><defs><style>.cls-1{fill:#4d5373;}.cls-2{fill:#fff;}</style></defs><rect class="cls-1" width="32" height="32" rx="5.06"/><path class="cls-2" d="M17.22,16a5.37,5.37,0,0,1-5.38,5.37A5.55,5.55,0,0,1,9.78,21,5.33,5.33,0,0,1,8,19.8,5.38,5.38,0,1,1,17.22,16Zm5.91,0c0,2.79-1.2,5.06-2.69,5.06S17.75,18.79,17.75,16s1.2-5.06,2.69-5.06S23.13,13.21,23.13,16Zm2.42,0c0,2.5-.42,4.53-.95,4.53s-.94-2-.94-4.53.42-4.53.94-4.53S25.55,13.5,25.55,16Z"/></svg>